<svg id="visual" viewBox="0 0 540 960" width="540" height="960" xmlns="http://www.w3.org/2000/svg" xmlns:xlink="http://www.w3.org/1999/xlink" version="1.1"><g transform="translate(265.7393975696001 475.74433945550527)"><path d="M102.8 -134C123.3 -105.3 123.2 -63.5 141.2 -16.7C159.1 30 195.2 81.8 188 121.9C180.7 162 130.2 190.5 87.8 178.8C45.4 167.1 11.2 115.3 -41.1 101.3C-93.3 87.3 -163.6 111.1 -177.6 97.4C-191.7 83.7 -149.5 32.4 -125.1 -7.5C-100.7 -47.3 -94.1 -75.8 -76.2 -104.9C-58.3 -134.1 -29.1 -164.1 6 -171.2C41.1 -178.4 82.3 -162.7 102.8 -134" fill="none" stroke="#004aad" stroke-width="6"></path></g></svg>